# xmcd CD database file
#
# Track frame offsets:
#	150
#	22255
#	52932
#
# Disc length: 898 seconds
#
# Revision: 0
# Processed by: cddbd v1.5.1PL0 Copyright (c) Steve Scherf et al.
# Submitted via: CDex 1.51
#
DISCID=1f038003
DTITLE=矢井田瞳 - モノクロレター
DYEAR=2004
DGENRE=JPop
TTITLE0=モノクロレター
TTITLE1=馬と人参
TTITLE2=CD-EXTRA
EXTD=YEAR: 2004
EXTT0=
EXTT1=
EXTT2=
PLAYORDER=
